<svg width="50" height="18" viewBox="0 0 50 18" fill="none" xmlns="http://www.w3.org/2000/svg">
<path fill-rule="evenodd" clip-rule="evenodd" d="M9.12054 2C10.4792 2 11.6905 2.28646 12.7545 2.85938C13.8348 3.41592 14.6778 4.22619 15.2835 5.29018C15.9055 6.35417 16.2165 7.59822 16.2165 9.02232C16.2165 10.4464 15.9055 11.6905 15.2835 12.7545C14.6778 13.8185 13.8348 14.6369 12.7545 15.2098C11.6905 15.7664 10.4792 16.0446 9.12054 16.0446C7.76191 16.0446 6.54241 15.7664 5.46205 15.2098C4.3817 14.6369 3.53051 13.8185 2.90848 12.7545C2.30283 11.6905 2 10.4464 2 9.02232C2 7.59822 2.30283 6.35417 2.90848 5.29018C3.53051 4.22619 4.3817 3.41592 5.46205 2.85938C6.54241 2.28646 7.76191 2 9.12054 2ZM9.12054 5.63393C8.31845 5.63393 7.63914 5.92857 7.08259 6.51786C6.54241 7.09077 6.27232 7.9256 6.27232 9.02232C6.27232 10.1191 6.54241 10.9539 7.08259 11.5268C7.63914 12.0997 8.31845 12.3862 9.12054 12.3862C9.92262 12.3862 10.5938 12.0997 11.1339 11.5268C11.6741 10.9539 11.9442 10.1191 11.9442 9.02232C11.9442 7.9256 11.6741 7.09077 11.1339 6.51786C10.5938 5.92857 9.92262 5.63393 9.12054 5.63393Z" fill="white"/>
<path d="M27.0857 2.02457C28.6572 2.02457 29.9012 2.54838 30.8179 3.59599C31.7509 4.64361 32.2174 6.08409 32.2174 7.91742V15.8728H28.0188V8.4085C28.0188 7.49183 27.7732 6.77978 27.2822 6.27234C26.8075 5.74853 26.1691 5.48662 25.367 5.48662C24.5158 5.48662 23.8365 5.75671 23.329 6.29689C22.838 6.83707 22.5924 7.60641 22.5924 8.60492V15.8728H18.3938V2.17189H22.5924V4.67635C22.9853 3.8579 23.5664 3.21132 24.3357 2.73662C25.1214 2.26192 26.0381 2.02457 27.0857 2.02457Z" fill="white"/>
<path fill-rule="evenodd" clip-rule="evenodd" d="M47.8772 9.78348C47.959 9.37426 48 8.99777 48 8.65402C48 7.3445 47.7135 6.19048 47.1406 5.19197C46.5841 4.17708 45.7902 3.39137 44.7589 2.83482C43.7277 2.27827 42.5327 2 41.1741 2C39.8318 2 38.6369 2.28646 37.5892 2.85938C36.5416 3.41592 35.7232 4.22619 35.1339 5.29018C34.561 6.3378 34.2746 7.58185 34.2746 9.02232C34.2746 10.4464 34.5691 11.6905 35.1584 12.7545C35.7477 13.8185 36.558 14.6369 37.5892 15.2098C38.6369 15.7664 39.8318 16.0446 41.1741 16.0446C42.3199 16.0446 43.3594 15.8318 44.2924 15.4063C45.2254 14.9643 45.9948 14.3668 46.6004 13.6138C47.206 12.8445 47.599 11.9769 47.779 11.0112H43.3348C43.2039 11.5022 42.9338 11.9033 42.5245 12.2143C42.1153 12.5253 41.5997 12.6808 40.9776 12.6808C40.241 12.6808 39.6354 12.4598 39.1607 12.0179C38.686 11.5595 38.4241 10.8147 38.375 9.78348H47.8772ZM43.0156 6.00223C43.5231 6.4442 43.7686 7.11533 43.7522 8.01563H38.3995C38.465 7.1317 38.7514 6.46057 39.2589 6.00223C39.7663 5.5439 40.4048 5.31473 41.1741 5.31473C41.9107 5.31473 42.5245 5.5439 43.0156 6.00223Z" fill="white"/>
</svg>
