<svg width="34" height="26" viewBox="0 0 34 26" fill="none" xmlns="http://www.w3.org/2000/svg">
<path fill-rule="evenodd" clip-rule="evenodd" d="M31.858 24.0033C33.2856 22.6722 33.9994 21.0602 33.9994 19.1671C33.9994 17.1558 33.4021 15.5289 32.2076 14.2866C31.0131 13.0443 29.3379 12.4231 27.182 12.4231C26.4828 12.4231 25.8418 12.571 25.2591 12.8668C25.3757 10.9738 26.206 9.4061 27.7501 8.16378C29.2942 6.92146 30.9403 6.21157 32.6883 6.0341V0C29.0757 0.295791 25.7981 1.83388 22.8556 4.61431C19.913 7.39474 18.4417 11.5358 18.4417 17.0375C18.4417 19.4629 19.1555 21.563 20.5831 23.3378C22.0107 25.1125 23.9772 25.9999 26.4828 25.9999C28.6387 25.9999 30.4304 25.3343 31.858 24.0033ZM13.5037 24.0034C14.9313 22.6724 15.645 21.0603 15.645 19.1673C15.645 17.1559 15.0478 15.5291 13.8533 14.2867C12.6588 13.0444 10.9836 12.4233 8.82765 12.4233C8.12843 12.4233 7.48748 12.5712 6.9048 12.867C7.02133 10.9739 7.85165 9.40623 9.39577 8.16391C10.9399 6.92159 12.5859 6.2117 14.334 6.03423V0.000129144C10.7214 0.29592 7.42923 1.83401 4.45753 4.61444C1.48583 7.39487 0 11.5359 0 17.0376C0 19.4631 0.728347 21.5632 2.18506 23.3379C3.64178 25.1126 5.62288 26 8.12843 26C10.2844 26 12.0761 25.3345 13.5037 24.0034Z" fill="url(#paint0_linear)"/>
<defs>
<linearGradient id="paint0_linear" x1="33.9994" y1="-6.57453e-07" x2="25.8971" y2="18.8724" gradientUnits="userSpaceOnUse">
<stop stop-color="#A25DEB"/>
<stop offset="1" stop-color="#6F2DD9"/>
</linearGradient>
</defs>
</svg>
